<?xml version="1.0" encoding="UTF-8" standalone="no"?>
<!DOCTYPE svg PUBLIC "-//W3C//DTD SVG 1.1//EN"
 "http://www.w3.org/Graphics/SVG/1.1/DTD/svg11.dtd">
<!-- Generated by graphviz version 14.1.5 (20260411.2331)
 -->
<!-- Title: TiffWriter Pages: 1 -->
<svg width="1640pt" height="590pt"
 viewBox="0.00 0.00 1640.00 590.00" xmlns="http://www.w3.org/2000/svg" xmlns:xlink="http://www.w3.org/1999/xlink">
<g id="graph0" class="graph" transform="scale(1 1) rotate(0) translate(4 585.5)">
<title>TiffWriter</title>
<polygon fill="white" stroke="none" points="-4,4 -4,-585.5 1635.75,-585.5 1635.75,4 -4,4"/>
<!-- TiffWriterHeader -->
<g id="node1" class="node">
<title>TiffWriterHeader</title>
<polygon fill="#e74c3c" stroke="none" points="733.12,-369.5 733.12,-391.5 1049.88,-391.5 1049.88,-369.5 733.12,-369.5"/>
<polygon fill="none" stroke="black" points="733.12,-369.5 733.12,-391.5 1049.88,-391.5 1049.88,-369.5 733.12,-369.5"/>
<text xml:space="preserve" text-anchor="start" x="853.62" y="-378" font-family="Helvetica,sans-Serif" font-weight="bold" font-size="10.00" fill="white">TiffWriterHeader</text>
<polygon fill="none" stroke="black" points="733.12,-299.5 733.12,-369.5 1049.88,-369.5 1049.88,-299.5 733.12,-299.5"/>
<text xml:space="preserve" text-anchor="start" x="738.12" y="-354.75" font-family="Helvetica,sans-Serif" font-size="10.00"> &#160;&#160;&#160;&#160;&#160;&#160;&#160;&#160;&#160;&#160;&#160;&#45; _stream : ostream&amp;</text>
<text xml:space="preserve" text-anchor="start" x="738.12" y="-342.75" font-family="Helvetica,sans-Serif" font-size="10.00"> &#160;&#160;&#160;&#160;&#160;&#160;&#160;&#160;&#160;&#160;&#160;&#45; _magic_num : ushort_t</text>
<text xml:space="preserve" text-anchor="start" x="738.12" y="-330.75" font-family="Helvetica,sans-Serif" font-size="10.00"> &#160;&#160;&#160;&#160;&#160;&#160;&#160;&#160;&#160;&#160;&#160;&#45; _endian : tiff_header_endian</text>
<text xml:space="preserve" text-anchor="start" x="738.12" y="-318.75" font-family="Helvetica,sans-Serif" font-size="10.00"> &#160;&#160;&#160;&#160;&#160;&#160;&#160;&#160;&#160;&#160;&#160;&#45; _idf_offset : uint_t</text>
<text xml:space="preserve" text-anchor="start" x="738.12" y="-306.75" font-family="Helvetica,sans-Serif" font-size="10.00"> &#160;&#160;&#160;&#160;&#160;&#160;&#160;</text>
<polygon fill="none" stroke="black" points="733.12,-229.5 733.12,-299.5 1049.88,-299.5 1049.88,-229.5 733.12,-229.5"/>
<text xml:space="preserve" text-anchor="start" x="738.12" y="-284.75" font-family="Helvetica,sans-Serif" font-size="10.00"> &#160;&#160;&#160;&#160;&#160;&#160;&#160;&#160;&#160;&#160;&#160;+ write_header() : void</text>
<text xml:space="preserve" text-anchor="start" x="738.12" y="-272.75" font-family="Helvetica,sans-Serif" font-size="10.00"> &#160;&#160;&#160;&#160;&#160;&#160;&#160;&#160;&#160;&#160;&#160;+ get_idf_offset() : uint_t</text>
<text xml:space="preserve" text-anchor="start" x="738.12" y="-260.75" font-family="Helvetica,sans-Serif" font-size="10.00"> &#160;&#160;&#160;&#160;&#160;&#160;&#160;&#160;&#160;&#160;&#160;+ create_endian_handler() : shared_ptr&lt;VirtualEndianHandler&gt;</text>
<text xml:space="preserve" text-anchor="start" x="738.12" y="-248.75" font-family="Helvetica,sans-Serif" font-size="10.00"> &#160;&#160;&#160;&#160;&#160;&#160;&#160;&#160;&#160;&#160;&#160;+ get_stream() : ostream&amp;</text>
<text xml:space="preserve" text-anchor="start" x="738.12" y="-236.75" font-family="Helvetica,sans-Serif" font-size="10.00"> &#160;&#160;&#160;&#160;&#160;&#160;&#160;</text>
</g>
<!-- VirtualEndianHandler -->
<g id="node4" class="node">
<title>VirtualEndianHandler</title>
<polygon fill="#1e8449" stroke="none" points="1054.5,-104 1054.5,-132 1340.5,-132 1340.5,-104 1054.5,-104"/>
<polygon fill="none" stroke="black" points="1054.5,-104 1054.5,-132 1340.5,-132 1340.5,-104 1054.5,-104"/>
<text xml:space="preserve" text-anchor="start" x="1147.25" y="-118.5" font-family="Helvetica,sans-Serif" font-weight="bold" font-size="10.00" fill="white">VirtualEndianHandler</text>
<text xml:space="preserve" text-anchor="start" x="1178.75" y="-110.4" font-family="Helvetica,sans-Serif" font-size="8.00" fill="white">«abstract»</text>
<polygon fill="none" stroke="black" points="1054.5,-82 1054.5,-104 1340.5,-104 1340.5,-82 1054.5,-82"/>
<text xml:space="preserve" text-anchor="start" x="1059.5" y="-90.5" font-family="Helvetica,sans-Serif" font-style="italic" font-size="10.00">(no fields)</text>
<polygon fill="none" stroke="black" points="1054.5,-24 1054.5,-82 1340.5,-82 1340.5,-24 1054.5,-24"/>
<text xml:space="preserve" text-anchor="start" x="1059.5" y="-67.25" font-family="Helvetica,sans-Serif" font-size="10.00"> &#160;&#160;&#160;&#160;&#160;&#160;&#160;&#160;&#160;&#160;&#160;+ convert(...) : T «pure virtual»</text>
<text xml:space="preserve" text-anchor="start" x="1059.5" y="-55.25" font-family="Helvetica,sans-Serif" font-size="10.00"> &#160;&#160;&#160;&#160;&#160;&#160;&#160;&#160;&#160;&#160;&#160;+ convert_to_array(...) : array «pure virtual»</text>
<text xml:space="preserve" text-anchor="start" x="1059.5" y="-43.25" font-family="Helvetica,sans-Serif" font-size="10.00"> &#160;&#160;&#160;&#160;&#160;&#160;&#160;&#160;&#160;&#160;&#160;+ get_endian_value() : tiff_header_endian «pure virtual»</text>
<text xml:space="preserve" text-anchor="start" x="1059.5" y="-31.25" font-family="Helvetica,sans-Serif" font-size="10.00"> &#160;&#160;&#160;&#160;&#160;&#160;&#160;</text>
</g>
<!-- TiffWriterHeader&#45;&gt;VirtualEndianHandler -->
<g id="edge8" class="edge">
<title>TiffWriterHeader&#45;&gt;VirtualEndianHandler</title>
<path fill="none" stroke="black" stroke-dasharray="5,2" d="M997.67,-229.53C1037.46,-199.56 1081.93,-166.06 1118.79,-138.29"/>
<polygon fill="black" stroke="black" points="1126.54,-132.46 1121.26,-142.07 1123.52,-134.73 1118.55,-138.47 1118.55,-138.47 1118.55,-138.47 1123.52,-134.73 1115.84,-134.88 1126.54,-132.46"/>
<text xml:space="preserve" text-anchor="middle" x="1083.07" y="-175.95" font-family="Helvetica,sans-Serif" font-size="9.00">«creates»</text>
</g>
<!-- TiffWriteData -->
<g id="node2" class="node">
<title>TiffWriteData</title>
<polygon fill="#e74c3c" stroke="none" points="432,-390.5 432,-418.5 715,-418.5 715,-390.5 432,-390.5"/>
<polygon fill="none" stroke="black" points="432,-390.5 432,-418.5 715,-418.5 715,-390.5 432,-390.5"/>
<text xml:space="preserve" text-anchor="start" x="531.12" y="-405" font-family="Helvetica,sans-Serif" font-weight="bold" font-size="10.00" fill="white">TiffWriteData&lt;TP&gt;</text>
<text xml:space="preserve" text-anchor="start" x="538.25" y="-396.9" font-family="Helvetica,sans-Serif" font-size="8.00" fill="white">«abstract template»</text>
<polygon fill="none" stroke="black" points="432,-296.5 432,-390.5 715,-390.5 715,-296.5 432,-296.5"/>
<text xml:space="preserve" text-anchor="start" x="437" y="-375.75" font-family="Helvetica,sans-Serif" font-size="10.00"> &#160;&#160;&#160;&#160;&#160;&#160;&#160;&#160;&#160;&#160;&#160;# _img : ImageContainer&lt;TP&gt;*</text>
<text xml:space="preserve" text-anchor="start" x="437" y="-363.75" font-family="Helvetica,sans-Serif" font-size="10.00"> &#160;&#160;&#160;&#160;&#160;&#160;&#160;&#160;&#160;&#160;&#160;# _stream : ostream&amp;</text>
<text xml:space="preserve" text-anchor="start" x="437" y="-351.75" font-family="Helvetica,sans-Serif" font-size="10.00"> &#160;&#160;&#160;&#160;&#160;&#160;&#160;&#160;&#160;&#160;&#160;# _values : map&lt;TiffTagType, TiffDataVariant&gt;</text>
<text xml:space="preserve" text-anchor="start" x="437" y="-339.75" font-family="Helvetica,sans-Serif" font-size="10.00"> &#160;&#160;&#160;&#160;&#160;&#160;&#160;&#160;&#160;&#160;&#160;# _endian_handler : shared_ptr&lt;VirtualEndianHandler&gt;</text>
<text xml:space="preserve" text-anchor="start" x="437" y="-327.75" font-family="Helvetica,sans-Serif" font-size="10.00"> &#160;&#160;&#160;&#160;&#160;&#160;&#160;&#160;&#160;&#160;&#160;# _strip_byte_count : size_t</text>
<text xml:space="preserve" text-anchor="start" x="437" y="-315.75" font-family="Helvetica,sans-Serif" font-size="10.00"> &#160;&#160;&#160;&#160;&#160;&#160;&#160;&#160;&#160;&#160;&#160;# _offset_data : uint64_t</text>
<text xml:space="preserve" text-anchor="start" x="437" y="-303.75" font-family="Helvetica,sans-Serif" font-size="10.00"> &#160;&#160;&#160;&#160;&#160;&#160;&#160;</text>
<polygon fill="none" stroke="black" points="432,-202.5 432,-296.5 715,-296.5 715,-202.5 432,-202.5"/>
<text xml:space="preserve" text-anchor="start" x="437" y="-281.75" font-family="Helvetica,sans-Serif" font-size="10.00"> &#160;&#160;&#160;&#160;&#160;&#160;&#160;&#160;&#160;&#160;&#160;+ write() : void</text>
<text xml:space="preserve" text-anchor="start" x="437" y="-269.75" font-family="Helvetica,sans-Serif" font-size="10.00"> &#160;&#160;&#160;&#160;&#160;&#160;&#160;&#160;&#160;&#160;&#160;+ write_IFDs() : void</text>
<text xml:space="preserve" text-anchor="start" x="437" y="-257.75" font-family="Helvetica,sans-Serif" font-size="10.00"> &#160;&#160;&#160;&#160;&#160;&#160;&#160;&#160;&#160;&#160;&#160;+ write_image_data() : void</text>
<text xml:space="preserve" text-anchor="start" x="437" y="-245.75" font-family="Helvetica,sans-Serif" font-size="10.00"> &#160;&#160;&#160;&#160;&#160;&#160;&#160;&#160;&#160;&#160;&#160;+ compress(data) : void</text>
<text xml:space="preserve" text-anchor="start" x="437" y="-233.75" font-family="Helvetica,sans-Serif" font-size="10.00"> &#160;&#160;&#160;&#160;&#160;&#160;&#160;&#160;&#160;&#160;&#160;+ apply_PhotometricInterpretation(data) : void</text>
<text xml:space="preserve" text-anchor="start" x="437" y="-221.75" font-family="Helvetica,sans-Serif" font-size="10.00"> &#160;&#160;&#160;&#160;&#160;&#160;&#160;&#160;&#160;&#160;&#160;+ tags_to_set() : void «pure virtual»</text>
<text xml:space="preserve" text-anchor="start" x="437" y="-209.75" font-family="Helvetica,sans-Serif" font-size="10.00"> &#160;&#160;&#160;&#160;&#160;&#160;&#160;</text>
</g>
<!-- TiffWriteData&#45;&gt;VirtualEndianHandler -->
<g id="edge9" class="edge">
<title>TiffWriteData&#45;&gt;VirtualEndianHandler</title>
<path fill="none" stroke="black" stroke-dasharray="5,2" d="M714.68,-206.7C717.94,-205.22 721.22,-203.82 724.5,-202.5 789.75,-176.29 970.28,-176.65 1037.5,-156 1054.74,-150.7 1072.46,-143.81 1089.54,-136.31"/>
<polygon fill="black" stroke="black" points="1098.4,-132.34 1091.12,-140.54 1094.95,-133.89 1089.28,-136.43 1089.28,-136.43 1089.28,-136.43 1094.95,-133.89 1087.44,-132.33 1098.4,-132.34"/>
<text xml:space="preserve" text-anchor="middle" x="924.78" y="-175.95" font-family="Helvetica,sans-Serif" font-size="9.00">«uses»</text>
</g>
<!-- ImageContainer -->
<g id="node9" class="node">
<title>ImageContainer</title>
<polygon fill="#7d3c98" stroke="none" points="300.88,-128 300.88,-156 496.12,-156 496.12,-128 300.88,-128"/>
<polygon fill="none" stroke="black" points="300.88,-128 300.88,-156 496.12,-156 496.12,-128 300.88,-128"/>
<text xml:space="preserve" text-anchor="start" x="349" y="-142.5" font-family="Helvetica,sans-Serif" font-weight="bold" font-size="10.00" fill="white">ImageContainer&lt;PT&gt;</text>
<text xml:space="preserve" text-anchor="start" x="378.62" y="-134.4" font-family="Helvetica,sans-Serif" font-size="8.00" fill="white">«template»</text>
<polygon fill="none" stroke="black" points="300.88,-70 300.88,-128 496.12,-128 496.12,-70 300.88,-70"/>
<text xml:space="preserve" text-anchor="start" x="305.88" y="-113.25" font-family="Helvetica,sans-Serif" font-size="10.00"> &#160;&#160;&#160;&#160;&#160;&#160;&#160;&#160;&#160;&#160;&#160;&#45; _img : vector&lt;PT&gt;</text>
<text xml:space="preserve" text-anchor="start" x="305.88" y="-101.25" font-family="Helvetica,sans-Serif" font-size="10.00"> &#160;&#160;&#160;&#160;&#160;&#160;&#160;&#160;&#160;&#160;&#160;&#45; _row_length : size_t</text>
<text xml:space="preserve" text-anchor="start" x="305.88" y="-89.25" font-family="Helvetica,sans-Serif" font-size="10.00"> &#160;&#160;&#160;&#160;&#160;&#160;&#160;&#160;&#160;&#160;&#160;&#45; _pixel_number_of_colors : size_t</text>
<text xml:space="preserve" text-anchor="start" x="305.88" y="-77.25" font-family="Helvetica,sans-Serif" font-size="10.00"> &#160;&#160;&#160;&#160;&#160;&#160;&#160;</text>
<polygon fill="none" stroke="black" points="300.88,0 300.88,-70 496.12,-70 496.12,0 300.88,0"/>
<text xml:space="preserve" text-anchor="start" x="305.88" y="-55.25" font-family="Helvetica,sans-Serif" font-size="10.00"> &#160;&#160;&#160;&#160;&#160;&#160;&#160;&#160;&#160;&#160;&#160;+ at(row, col, px) : PT</text>
<text xml:space="preserve" text-anchor="start" x="305.88" y="-43.25" font-family="Helvetica,sans-Serif" font-size="10.00"> &#160;&#160;&#160;&#160;&#160;&#160;&#160;&#160;&#160;&#160;&#160;+ get_width() : size_t</text>
<text xml:space="preserve" text-anchor="start" x="305.88" y="-31.25" font-family="Helvetica,sans-Serif" font-size="10.00"> &#160;&#160;&#160;&#160;&#160;&#160;&#160;&#160;&#160;&#160;&#160;+ get_height() : size_t</text>
<text xml:space="preserve" text-anchor="start" x="305.88" y="-19.25" font-family="Helvetica,sans-Serif" font-size="10.00"> &#160;&#160;&#160;&#160;&#160;&#160;&#160;&#160;&#160;&#160;&#160;+ get_data() : vector&lt;PT&gt;</text>
<text xml:space="preserve" text-anchor="start" x="305.88" y="-7.25" font-family="Helvetica,sans-Serif" font-size="10.00"> &#160;&#160;&#160;&#160;&#160;&#160;&#160;</text>
</g>
<!-- TiffWriteData&#45;&gt;ImageContainer -->
<g id="edge10" class="edge">
<title>TiffWriteData&#45;&gt;ImageContainer</title>
<path fill="none" stroke="black" stroke-dasharray="5,2" d="M492.4,-202.68C482.76,-189.99 473.02,-177.15 463.64,-164.8"/>
<polygon fill="black" stroke="black" points="457.62,-156.87 467.25,-162.11 459.91,-159.88 463.67,-164.83 463.67,-164.83 463.67,-164.83 459.91,-159.88 460.08,-167.56 457.62,-156.87"/>
<text xml:space="preserve" text-anchor="middle" x="492.4" y="-175.95" font-family="Helvetica,sans-Serif" font-size="9.00">«reads»</text>
</g>
<!-- PackBits -->
<g id="node10" class="node">
<title>PackBits</title>
<polygon fill="#616a6b" stroke="none" points="514.62,-98 514.62,-126 762.38,-126 762.38,-98 514.62,-98"/>
<polygon fill="none" stroke="black" points="514.62,-98 514.62,-126 762.38,-126 762.38,-98 514.62,-98"/>
<text xml:space="preserve" text-anchor="start" x="617.88" y="-112.5" font-family="Helvetica,sans-Serif" font-weight="bold" font-size="10.00" fill="white">PackBits</text>
<text xml:space="preserve" text-anchor="start" x="625.38" y="-104.4" font-family="Helvetica,sans-Serif" font-size="8.00" fill="white">«utility»</text>
<polygon fill="none" stroke="black" points="514.62,-76 514.62,-98 762.38,-98 762.38,-76 514.62,-76"/>
<text xml:space="preserve" text-anchor="start" x="519.62" y="-84.5" font-family="Helvetica,sans-Serif" font-style="italic" font-size="10.00">(no fields)</text>
<polygon fill="none" stroke="black" points="514.62,-30 514.62,-76 762.38,-76 762.38,-30 514.62,-30"/>
<text xml:space="preserve" text-anchor="start" x="519.62" y="-61.25" font-family="Helvetica,sans-Serif" font-size="10.00"> &#160;&#160;&#160;&#160;&#160;&#160;&#160;&#160;&#160;&#160;&#160;+ compress(data) : vector&lt;uint8_t&gt; «static»</text>
<text xml:space="preserve" text-anchor="start" x="519.62" y="-49.25" font-family="Helvetica,sans-Serif" font-size="10.00"> &#160;&#160;&#160;&#160;&#160;&#160;&#160;&#160;&#160;&#160;&#160;+ decompress(data) : vector&lt;uint8_t&gt; «static»</text>
<text xml:space="preserve" text-anchor="start" x="519.62" y="-37.25" font-family="Helvetica,sans-Serif" font-size="10.00"> &#160;&#160;&#160;&#160;&#160;&#160;&#160;</text>
</g>
<!-- TiffWriteData&#45;&gt;PackBits -->
<g id="edge11" class="edge">
<title>TiffWriteData&#45;&gt;PackBits</title>
<path fill="none" stroke="black" stroke-dasharray="5,2" d="M603.62,-202.68C610.07,-179.83 616.64,-156.52 622.31,-136.39"/>
<polygon fill="black" stroke="black" points="624.95,-127.05 626.57,-137.89 623.93,-130.68 622.24,-136.67 622.24,-136.67 622.24,-136.67 623.93,-130.68 617.91,-135.45 624.95,-127.05"/>
<text xml:space="preserve" text-anchor="middle" x="624.89" y="-175.95" font-family="Helvetica,sans-Serif" font-size="9.00">«uses»</text>
</g>
<!-- LZW -->
<g id="node11" class="node">
<title>LZW</title>
<polygon fill="#616a6b" stroke="none" points="780.62,-122 780.62,-150 1028.38,-150 1028.38,-122 780.62,-122"/>
<polygon fill="none" stroke="black" points="780.62,-122 780.62,-150 1028.38,-150 1028.38,-122 780.62,-122"/>
<text xml:space="preserve" text-anchor="start" x="893.62" y="-136.5" font-family="Helvetica,sans-Serif" font-weight="bold" font-size="10.00" fill="white">LZW</text>
<text xml:space="preserve" text-anchor="start" x="891.38" y="-128.4" font-family="Helvetica,sans-Serif" font-size="8.00" fill="white">«utility»</text>
<polygon fill="none" stroke="black" points="780.62,-76 780.62,-122 1028.38,-122 1028.38,-76 780.62,-76"/>
<text xml:space="preserve" text-anchor="start" x="785.62" y="-107.25" font-family="Helvetica,sans-Serif" font-size="10.00"> &#160;&#160;&#160;&#160;&#160;&#160;&#160;&#160;&#160;&#160;&#160;&#45; compression_data_left : uint8_t</text>
<text xml:space="preserve" text-anchor="start" x="785.62" y="-95.25" font-family="Helvetica,sans-Serif" font-size="10.00"> &#160;&#160;&#160;&#160;&#160;&#160;&#160;&#160;&#160;&#160;&#160;&#45; compression_number_bits_left : size_t</text>
<text xml:space="preserve" text-anchor="start" x="785.62" y="-83.25" font-family="Helvetica,sans-Serif" font-size="10.00"> &#160;&#160;&#160;&#160;&#160;&#160;&#160;</text>
<polygon fill="none" stroke="black" points="780.62,-6 780.62,-76 1028.38,-76 1028.38,-6 780.62,-6"/>
<text xml:space="preserve" text-anchor="start" x="785.62" y="-61.25" font-family="Helvetica,sans-Serif" font-size="10.00"> &#160;&#160;&#160;&#160;&#160;&#160;&#160;&#160;&#160;&#160;&#160;+ compress(data) : vector&lt;uint16_t&gt; «static»</text>
<text xml:space="preserve" text-anchor="start" x="785.62" y="-49.25" font-family="Helvetica,sans-Serif" font-size="10.00"> &#160;&#160;&#160;&#160;&#160;&#160;&#160;&#160;&#160;&#160;&#160;+ decompress(data) : vector&lt;uint8_t&gt; «static»</text>
<text xml:space="preserve" text-anchor="start" x="785.62" y="-37.25" font-family="Helvetica,sans-Serif" font-size="10.00"> &#160;&#160;&#160;&#160;&#160;&#160;&#160;&#160;&#160;&#160;&#160;+ compress_tiff(data) : vector&lt;uint8_t&gt;</text>
<text xml:space="preserve" text-anchor="start" x="785.62" y="-25.25" font-family="Helvetica,sans-Serif" font-size="10.00"> &#160;&#160;&#160;&#160;&#160;&#160;&#160;&#160;&#160;&#160;&#160;+ decompress_tiff(data) : vector&lt;uint8_t&gt;</text>
<text xml:space="preserve" text-anchor="start" x="785.62" y="-13.25" font-family="Helvetica,sans-Serif" font-size="10.00"> &#160;&#160;&#160;&#160;&#160;&#160;&#160;</text>
</g>
<!-- TiffWriteData&#45;&gt;LZW -->
<g id="edge12" class="edge">
<title>TiffWriteData&#45;&gt;LZW</title>
<path fill="none" stroke="black" stroke-dasharray="5,2" d="M714.92,-209.19C718.14,-206.94 721.34,-204.71 724.5,-202.5 746.08,-187.45 769.2,-171.48 791.43,-156.19"/>
<polygon fill="black" stroke="black" points="799.56,-150.61 793.87,-159.98 796.44,-152.75 791.32,-156.27 791.32,-156.27 791.32,-156.27 796.44,-152.75 788.77,-152.56 799.56,-150.61"/>
<text xml:space="preserve" text-anchor="middle" x="778.8" y="-175.95" font-family="Helvetica,sans-Serif" font-size="9.00">«uses»</text>
</g>
<!-- BitlevelImage -->
<g id="node3" class="node">
<title>BitlevelImage</title>
<polygon fill="#f1948a" stroke="none" points="43.75,-107 43.75,-129 283.25,-129 283.25,-107 43.75,-107"/>
<polygon fill="none" stroke="black" points="43.75,-107 43.75,-129 283.25,-129 283.25,-107 43.75,-107"/>
<text xml:space="preserve" text-anchor="start" x="131.62" y="-115.5" font-family="Helvetica,sans-Serif" font-weight="bold" font-size="10.00">BitlevelImage</text>
<polygon fill="none" stroke="black" points="43.75,-73 43.75,-107 283.25,-107 283.25,-73 43.75,-73"/>
<text xml:space="preserve" text-anchor="start" x="48.75" y="-92.25" font-family="Helvetica,sans-Serif" font-size="10.00"> &#160;&#160;&#160;&#160;&#160;&#160;&#160;&#160;&#160;&#160;&#160;&#45; _config : TiffWriterConfig</text>
<text xml:space="preserve" text-anchor="start" x="48.75" y="-80.25" font-family="Helvetica,sans-Serif" font-size="10.00"> &#160;&#160;&#160;&#160;&#160;&#160;&#160;</text>
<polygon fill="none" stroke="black" points="43.75,-27 43.75,-73 283.25,-73 283.25,-27 43.75,-27"/>
<text xml:space="preserve" text-anchor="start" x="48.75" y="-58.25" font-family="Helvetica,sans-Serif" font-size="10.00"> &#160;&#160;&#160;&#160;&#160;&#160;&#160;&#160;&#160;&#160;&#160;+ BitlevelImage(header, img, stream, config)</text>
<text xml:space="preserve" text-anchor="start" x="48.75" y="-46.25" font-family="Helvetica,sans-Serif" font-size="10.00"> &#160;&#160;&#160;&#160;&#160;&#160;&#160;&#160;&#160;&#160;&#160;+ tags_to_set() : void «override»</text>
<text xml:space="preserve" text-anchor="start" x="48.75" y="-34.25" font-family="Helvetica,sans-Serif" font-size="10.00"> &#160;&#160;&#160;&#160;&#160;&#160;&#160;</text>
</g>
<!-- BitlevelImage&#45;&gt;TiffWriteData -->
<g id="edge1" class="edge">
<title>BitlevelImage&#45;&gt;TiffWriteData</title>
<path fill="none" stroke="black" d="M242.77,-129C258.68,-138.38 275.45,-147.8 291.5,-156 338.4,-179.97 353.75,-178.25 400.5,-202.5 407.72,-206.25 415.04,-210.18 422.39,-214.25"/>
<polygon fill="none" stroke="black" points="420.66,-217.29 431.09,-219.12 424.08,-211.18 420.66,-217.29"/>
</g>
<!-- GrayImage -->
<g id="node5" class="node">
<title>GrayImage</title>
<polygon fill="#fadbd8" stroke="none" points="205,-327.5 205,-349.5 392,-349.5 392,-327.5 205,-327.5"/>
<polygon fill="none" stroke="black" points="205,-327.5 205,-349.5 392,-349.5 392,-327.5 205,-327.5"/>
<text xml:space="preserve" text-anchor="start" x="273.38" y="-336" font-family="Helvetica,sans-Serif" font-weight="bold" font-size="10.00">GrayImage</text>
<polygon fill="none" stroke="black" points="205,-305.5 205,-327.5 392,-327.5 392,-305.5 205,-305.5"/>
<text xml:space="preserve" text-anchor="start" x="210" y="-314" font-family="Helvetica,sans-Serif" font-style="italic" font-size="10.00">(inherits all)</text>
<polygon fill="none" stroke="black" points="205,-271.5 205,-305.5 392,-305.5 392,-271.5 205,-271.5"/>
<text xml:space="preserve" text-anchor="start" x="210" y="-290.75" font-family="Helvetica,sans-Serif" font-size="10.00"> &#160;&#160;&#160;&#160;&#160;&#160;&#160;&#160;&#160;&#160;&#160;+ tags_to_set() : void «override»</text>
<text xml:space="preserve" text-anchor="start" x="210" y="-278.75" font-family="Helvetica,sans-Serif" font-size="10.00"> &#160;&#160;&#160;&#160;&#160;&#160;&#160;</text>
</g>
<!-- GrayImage&#45;&gt;BitlevelImage -->
<g id="edge2" class="edge">
<title>GrayImage&#45;&gt;BitlevelImage</title>
<path fill="none" stroke="black" d="M276.36,-271.7C255.24,-235.63 223.09,-180.74 198.5,-138.75"/>
<polygon fill="none" stroke="black" points="201.58,-137.09 193.5,-130.23 195.54,-140.63 201.58,-137.09"/>
</g>
<!-- RGBImage -->
<g id="node6" class="node">
<title>RGBImage</title>
<polygon fill="#fadbd8" stroke="none" points="0,-327.5 0,-349.5 187,-349.5 187,-327.5 0,-327.5"/>
<polygon fill="none" stroke="black" points="0,-327.5 0,-349.5 187,-349.5 187,-327.5 0,-327.5"/>
<text xml:space="preserve" text-anchor="start" x="68" y="-336" font-family="Helvetica,sans-Serif" font-weight="bold" font-size="10.00">RGBImage</text>
<polygon fill="none" stroke="black" points="0,-305.5 0,-327.5 187,-327.5 187,-305.5 0,-305.5"/>
<text xml:space="preserve" text-anchor="start" x="5" y="-314" font-family="Helvetica,sans-Serif" font-style="italic" font-size="10.00">(inherits all)</text>
<polygon fill="none" stroke="black" points="0,-271.5 0,-305.5 187,-305.5 187,-271.5 0,-271.5"/>
<text xml:space="preserve" text-anchor="start" x="5" y="-290.75" font-family="Helvetica,sans-Serif" font-size="10.00"> &#160;&#160;&#160;&#160;&#160;&#160;&#160;&#160;&#160;&#160;&#160;+ tags_to_set() : void «override»</text>
<text xml:space="preserve" text-anchor="start" x="5" y="-278.75" font-family="Helvetica,sans-Serif" font-size="10.00"> &#160;&#160;&#160;&#160;&#160;&#160;&#160;</text>
</g>
<!-- RGBImage&#45;&gt;BitlevelImage -->
<g id="edge3" class="edge">
<title>RGBImage&#45;&gt;BitlevelImage</title>
<path fill="none" stroke="black" d="M104.98,-271.7C115.84,-235.94 132.32,-181.66 145.03,-139.82"/>
<polygon fill="none" stroke="black" points="148.34,-140.96 147.9,-130.37 141.64,-138.92 148.34,-140.96"/>
</g>
<!-- LittleEndian_TIFF -->
<g id="node7" class="node">
<title>LittleEndian_TIFF</title>
<polygon fill="#52be80" stroke="none" points="1068.25,-339.5 1068.25,-361.5 1340.75,-361.5 1340.75,-339.5 1068.25,-339.5"/>
<polygon fill="none" stroke="black" points="1068.25,-339.5 1068.25,-361.5 1340.75,-361.5 1340.75,-339.5 1068.25,-339.5"/>
<text xml:space="preserve" text-anchor="start" x="1163.25" y="-348" font-family="Helvetica,sans-Serif" font-weight="bold" font-size="10.00">LittleEndian_TIFF</text>
<polygon fill="none" stroke="black" points="1068.25,-317.5 1068.25,-339.5 1340.75,-339.5 1340.75,-317.5 1068.25,-317.5"/>
<text xml:space="preserve" text-anchor="start" x="1073.25" y="-326" font-family="Helvetica,sans-Serif" font-style="italic" font-size="10.00">(no fields)</text>
<polygon fill="none" stroke="black" points="1068.25,-259.5 1068.25,-317.5 1340.75,-317.5 1340.75,-259.5 1068.25,-259.5"/>
<text xml:space="preserve" text-anchor="start" x="1073.25" y="-302.75" font-family="Helvetica,sans-Serif" font-size="10.00"> &#160;&#160;&#160;&#160;&#160;&#160;&#160;&#160;&#160;&#160;&#160;+ convert(...) : T «override»</text>
<text xml:space="preserve" text-anchor="start" x="1073.25" y="-290.75" font-family="Helvetica,sans-Serif" font-size="10.00"> &#160;&#160;&#160;&#160;&#160;&#160;&#160;&#160;&#160;&#160;&#160;+ convert_to_array(...) : array «override»</text>
<text xml:space="preserve" text-anchor="start" x="1073.25" y="-278.75" font-family="Helvetica,sans-Serif" font-size="10.00"> &#160;&#160;&#160;&#160;&#160;&#160;&#160;&#160;&#160;&#160;&#160;+ get_endian_value() : tiff_header_endian «override»</text>
<text xml:space="preserve" text-anchor="start" x="1073.25" y="-266.75" font-family="Helvetica,sans-Serif" font-size="10.00"> &#160;&#160;&#160;&#160;&#160;&#160;&#160;</text>
</g>
<!-- LittleEndian_TIFF&#45;&gt;VirtualEndianHandler -->
<g id="edge4" class="edge">
<title>LittleEndian_TIFF&#45;&gt;VirtualEndianHandler</title>
<path fill="none" stroke="black" d="M1202.99,-259.77C1201.95,-225.59 1200.56,-179.89 1199.44,-142.99"/>
<polygon fill="none" stroke="black" points="1202.95,-143.25 1199.15,-133.36 1195.96,-143.46 1202.95,-143.25"/>
</g>
<!-- BigEndian_TIFF -->
<g id="node8" class="node">
<title>BigEndian_TIFF</title>
<polygon fill="#52be80" stroke="none" points="1359.25,-339.5 1359.25,-361.5 1631.75,-361.5 1631.75,-339.5 1359.25,-339.5"/>
<polygon fill="none" stroke="black" points="1359.25,-339.5 1359.25,-361.5 1631.75,-361.5 1631.75,-339.5 1359.25,-339.5"/>
<text xml:space="preserve" text-anchor="start" x="1457.62" y="-348" font-family="Helvetica,sans-Serif" font-weight="bold" font-size="10.00">BigEndian_TIFF</text>
<polygon fill="none" stroke="black" points="1359.25,-317.5 1359.25,-339.5 1631.75,-339.5 1631.75,-317.5 1359.25,-317.5"/>
<text xml:space="preserve" text-anchor="start" x="1364.25" y="-326" font-family="Helvetica,sans-Serif" font-style="italic" font-size="10.00">(no fields)</text>
<polygon fill="none" stroke="black" points="1359.25,-259.5 1359.25,-317.5 1631.75,-317.5 1631.75,-259.5 1359.25,-259.5"/>
<text xml:space="preserve" text-anchor="start" x="1364.25" y="-302.75" font-family="Helvetica,sans-Serif" font-size="10.00"> &#160;&#160;&#160;&#160;&#160;&#160;&#160;&#160;&#160;&#160;&#160;+ convert(...) : T «override»</text>
<text xml:space="preserve" text-anchor="start" x="1364.25" y="-290.75" font-family="Helvetica,sans-Serif" font-size="10.00"> &#160;&#160;&#160;&#160;&#160;&#160;&#160;&#160;&#160;&#160;&#160;+ convert_to_array(...) : array «override»</text>
<text xml:space="preserve" text-anchor="start" x="1364.25" y="-278.75" font-family="Helvetica,sans-Serif" font-size="10.00"> &#160;&#160;&#160;&#160;&#160;&#160;&#160;&#160;&#160;&#160;&#160;+ get_endian_value() : tiff_header_endian «override»</text>
<text xml:space="preserve" text-anchor="start" x="1364.25" y="-266.75" font-family="Helvetica,sans-Serif" font-size="10.00"> &#160;&#160;&#160;&#160;&#160;&#160;&#160;</text>
</g>
<!-- BigEndian_TIFF&#45;&gt;VirtualEndianHandler -->
<g id="edge5" class="edge">
<title>BigEndian_TIFF&#45;&gt;VirtualEndianHandler</title>
<path fill="none" stroke="black" d="M1431.21,-259.77C1385.3,-224.26 1323.33,-176.33 1274.74,-138.74"/>
<polygon fill="none" stroke="black" points="1277.07,-136.12 1267.02,-132.78 1272.79,-141.66 1277.07,-136.12"/>
</g>
<!-- TiffWriter -->
<g id="node12" class="node">
<title>TiffWriter</title>
<polygon fill="#922b21" stroke="none" points="601.25,-559.5 601.25,-581.5 861.75,-581.5 861.75,-559.5 601.25,-559.5"/>
<polygon fill="none" stroke="black" points="601.25,-559.5 601.25,-581.5 861.75,-581.5 861.75,-559.5 601.25,-559.5"/>
<text xml:space="preserve" text-anchor="start" x="710.12" y="-568" font-family="Helvetica,sans-Serif" font-weight="bold" font-size="10.00" fill="white">TiffWriter</text>
<polygon fill="none" stroke="black" points="601.25,-501.5 601.25,-559.5 861.75,-559.5 861.75,-501.5 601.25,-501.5"/>
<text xml:space="preserve" text-anchor="start" x="606.25" y="-544.75" font-family="Helvetica,sans-Serif" font-size="10.00"> &#160;&#160;&#160;&#160;&#160;&#160;&#160;&#160;&#160;&#160;&#160;&#45; _file : ofstream</text>
<text xml:space="preserve" text-anchor="start" x="606.25" y="-532.75" font-family="Helvetica,sans-Serif" font-size="10.00"> &#160;&#160;&#160;&#160;&#160;&#160;&#160;&#160;&#160;&#160;&#160;&#45; _header : optional&lt;TiffWriterHeader&gt;</text>
<text xml:space="preserve" text-anchor="start" x="606.25" y="-520.75" font-family="Helvetica,sans-Serif" font-size="10.00"> &#160;&#160;&#160;&#160;&#160;&#160;&#160;&#160;&#160;&#160;&#160;&#45; _writer : unique_ptr&lt;TiffWriteData&lt;uint8_t&gt;&gt;</text>
<text xml:space="preserve" text-anchor="start" x="606.25" y="-508.75" font-family="Helvetica,sans-Serif" font-size="10.00"> &#160;&#160;&#160;&#160;&#160;&#160;&#160;</text>
<polygon fill="none" stroke="black" points="601.25,-455.5 601.25,-501.5 861.75,-501.5 861.75,-455.5 601.25,-455.5"/>
<text xml:space="preserve" text-anchor="start" x="606.25" y="-486.75" font-family="Helvetica,sans-Serif" font-size="10.00"> &#160;&#160;&#160;&#160;&#160;&#160;&#160;&#160;&#160;&#160;&#160;+ TiffWriter(path, type, img, compression, endian)</text>
<text xml:space="preserve" text-anchor="start" x="606.25" y="-474.75" font-family="Helvetica,sans-Serif" font-size="10.00"> &#160;&#160;&#160;&#160;&#160;&#160;&#160;&#160;&#160;&#160;&#160;+ write() : void</text>
<text xml:space="preserve" text-anchor="start" x="606.25" y="-462.75" font-family="Helvetica,sans-Serif" font-size="10.00"> &#160;&#160;&#160;&#160;&#160;&#160;&#160;</text>
</g>
<!-- TiffWriter&#45;&gt;TiffWriterHeader -->
<g id="edge6" class="edge">
<title>TiffWriter&#45;&gt;TiffWriterHeader</title>
<path fill="none" stroke="black" d="M787.4,-445.53C801.03,-427.98 815.69,-409.1 829.58,-391.22"/>
<polygon fill="black" stroke="black" points="787.42,-445.5 786.9,-452.7 780.06,-454.98 780.58,-447.79 787.42,-445.5"/>
</g>
<!-- TiffWriter&#45;&gt;TiffWriteData -->
<g id="edge7" class="edge">
<title>TiffWriter&#45;&gt;TiffWriteData</title>
<path fill="none" stroke="black" d="M676.28,-445.5C669.51,-436.68 662.49,-427.52 655.43,-418.32"/>
<polygon fill="black" stroke="black" points="676.24,-445.46 683.07,-447.78 683.55,-454.98 676.72,-452.65 676.24,-445.46"/>
</g>
</g>
</svg>
