<?xml version="1.0" encoding="UTF-8" standalone="no"?>
<!DOCTYPE svg PUBLIC "-//W3C//DTD SVG 1.1//EN"
 "http://www.w3.org/Graphics/SVG/1.1/DTD/svg11.dtd">
<!-- Generated by graphviz version 14.1.5 (20260411.2331)
 -->
<!-- Title: TiffWriter Pages: 1 -->
<svg width="730pt" height="684pt"
 viewBox="0.00 0.00 730.00 684.00" xmlns="http://www.w3.org/2000/svg" xmlns:xlink="http://www.w3.org/1999/xlink">
<g id="graph0" class="graph" transform="scale(1 1) rotate(0) translate(4 680)">
<title>TiffWriter</title>
<polygon fill="white" stroke="none" points="-4,4 -4,-680 726,-680 726,4 -4,4"/>
<!-- TiffWriter -->
<g id="node1" class="node">
<title>TiffWriter</title>
<polygon fill="#922b21" stroke="none" points="308.75,-539 308.75,-561 520.5,-561 520.5,-539 308.75,-539"/>
<polygon fill="none" stroke="black" points="308.75,-539 308.75,-561 520.5,-561 520.5,-539 308.75,-539"/>
<text xml:space="preserve" text-anchor="start" x="393.25" y="-547.5" font-family="Helvetica,sans-Serif" font-weight="bold" font-size="10.00" fill="white">TiffWriter</text>
<polygon fill="none" stroke="black" points="308.75,-481 308.75,-539 520.5,-539 520.5,-481 308.75,-481"/>
<text xml:space="preserve" text-anchor="start" x="313.75" y="-524.25" font-family="Helvetica,sans-Serif" font-size="10.00"> &#160;&#160;&#160;&#160;&#160;&#160;&#160;&#160;&#160;&#160;&#160;&#45; _file : ofstream</text>
<text xml:space="preserve" text-anchor="start" x="313.75" y="-512.25" font-family="Helvetica,sans-Serif" font-size="10.00"> &#160;&#160;&#160;&#160;&#160;&#160;&#160;&#160;&#160;&#160;&#160;&#45; _header : optional&lt;TiffWriterHeader&gt;</text>
<text xml:space="preserve" text-anchor="start" x="313.75" y="-500.25" font-family="Helvetica,sans-Serif" font-size="10.00"> &#160;&#160;&#160;&#160;&#160;&#160;&#160;&#160;&#160;&#160;&#160;&#45; _writer : unique_ptr&lt;TiffWriteData&gt;</text>
<text xml:space="preserve" text-anchor="start" x="313.75" y="-488.25" font-family="Helvetica,sans-Serif" font-size="10.00"> &#160;&#160;&#160;&#160;&#160;&#160;&#160;</text>
<polygon fill="none" stroke="black" points="308.75,-447 308.75,-481 520.5,-481 520.5,-447 308.75,-447"/>
<text xml:space="preserve" text-anchor="start" x="313.75" y="-466.25" font-family="Helvetica,sans-Serif" font-size="10.00"> &#160;&#160;&#160;&#160;&#160;&#160;&#160;&#160;&#160;&#160;&#160;+ write()</text>
<text xml:space="preserve" text-anchor="start" x="313.75" y="-454.25" font-family="Helvetica,sans-Serif" font-size="10.00"> &#160;&#160;&#160;&#160;&#160;&#160;&#160;</text>
</g>
<!-- TiffWriterHeader -->
<g id="node2" class="node">
<title>TiffWriterHeader</title>
<polygon fill="#e74c3c" stroke="none" points="339.88,-345.5 339.88,-367.5 513.38,-367.5 513.38,-345.5 339.88,-345.5"/>
<polygon fill="none" stroke="black" points="339.88,-345.5 339.88,-367.5 513.38,-367.5 513.38,-345.5 339.88,-345.5"/>
<text xml:space="preserve" text-anchor="start" x="388.75" y="-354" font-family="Helvetica,sans-Serif" font-weight="bold" font-size="10.00" fill="white">TiffWriterHeader</text>
<polygon fill="none" stroke="black" points="339.88,-275.5 339.88,-345.5 513.38,-345.5 513.38,-275.5 339.88,-275.5"/>
<text xml:space="preserve" text-anchor="start" x="344.88" y="-330.75" font-family="Helvetica,sans-Serif" font-size="10.00"> &#160;&#160;&#160;&#160;&#160;&#160;&#160;&#160;&#160;&#160;&#160;&#45; _stream : ostream&amp;</text>
<text xml:space="preserve" text-anchor="start" x="344.88" y="-318.75" font-family="Helvetica,sans-Serif" font-size="10.00"> &#160;&#160;&#160;&#160;&#160;&#160;&#160;&#160;&#160;&#160;&#160;&#45; _magic_num : ushort_t</text>
<text xml:space="preserve" text-anchor="start" x="344.88" y="-306.75" font-family="Helvetica,sans-Serif" font-size="10.00"> &#160;&#160;&#160;&#160;&#160;&#160;&#160;&#160;&#160;&#160;&#160;&#45; _endian : tiff_header_endian</text>
<text xml:space="preserve" text-anchor="start" x="344.88" y="-294.75" font-family="Helvetica,sans-Serif" font-size="10.00"> &#160;&#160;&#160;&#160;&#160;&#160;&#160;&#160;&#160;&#160;&#160;&#45; _idf_offset : uint_t</text>
<text xml:space="preserve" text-anchor="start" x="344.88" y="-282.75" font-family="Helvetica,sans-Serif" font-size="10.00"> &#160;&#160;&#160;&#160;&#160;&#160;&#160;</text>
<polygon fill="none" stroke="black" points="339.88,-217.5 339.88,-275.5 513.38,-275.5 513.38,-217.5 339.88,-217.5"/>
<text xml:space="preserve" text-anchor="start" x="344.88" y="-260.75" font-family="Helvetica,sans-Serif" font-size="10.00"> &#160;&#160;&#160;&#160;&#160;&#160;&#160;&#160;&#160;&#160;&#160;+ write_header()</text>
<text xml:space="preserve" text-anchor="start" x="344.88" y="-248.75" font-family="Helvetica,sans-Serif" font-size="10.00"> &#160;&#160;&#160;&#160;&#160;&#160;&#160;&#160;&#160;&#160;&#160;+ get_idf_offset() : uint_t</text>
<text xml:space="preserve" text-anchor="start" x="344.88" y="-236.75" font-family="Helvetica,sans-Serif" font-size="10.00"> &#160;&#160;&#160;&#160;&#160;&#160;&#160;&#160;&#160;&#160;&#160;+ create_endian_handler()</text>
<text xml:space="preserve" text-anchor="start" x="344.88" y="-224.75" font-family="Helvetica,sans-Serif" font-size="10.00"> &#160;&#160;&#160;&#160;&#160;&#160;&#160;</text>
</g>
<!-- TiffWriter&#45;&gt;TiffWriterHeader -->
<g id="edge5" class="edge">
<title>TiffWriter&#45;&gt;TiffWriterHeader</title>
<path fill="none" stroke="black" stroke-dasharray="5,2" d="M417.83,-447.13C419.04,-426 420.44,-401.43 421.77,-378.23"/>
<polygon fill="black" stroke="black" points="422.33,-368.55 426.25,-378.79 422.11,-372.32 421.75,-378.53 421.75,-378.53 421.75,-378.53 422.11,-372.32 417.26,-378.28 422.33,-368.55"/>
<text xml:space="preserve" text-anchor="middle" x="428.95" y="-420.45" font-family="Helvetica,sans-Serif" font-size="9.00">uses</text>
</g>
<!-- TiffWriteData -->
<g id="node3" class="node">
<title>TiffWriteData</title>
<polygon fill="#e74c3c" stroke="none" points="73.75,-372.5 73.75,-400.5 321.5,-400.5 321.5,-372.5 73.75,-372.5"/>
<polygon fill="none" stroke="black" points="73.75,-372.5 73.75,-400.5 321.5,-400.5 321.5,-372.5 73.75,-372.5"/>
<text xml:space="preserve" text-anchor="start" x="155.25" y="-387" font-family="Helvetica,sans-Serif" font-weight="bold" font-size="10.00" fill="white">TiffWriteData&lt;TP&gt;</text>
<text xml:space="preserve" text-anchor="start" x="162.38" y="-378.9" font-family="Helvetica,sans-Serif" font-size="8.00" fill="white">«abstract template»</text>
<polygon fill="none" stroke="black" points="73.75,-278.5 73.75,-372.5 321.5,-372.5 321.5,-278.5 73.75,-278.5"/>
<text xml:space="preserve" text-anchor="start" x="78.75" y="-357.75" font-family="Helvetica,sans-Serif" font-size="10.00"> &#160;&#160;&#160;&#160;&#160;&#160;&#160;&#160;&#160;&#160;&#160;# _img : ImageContainer&lt;TP&gt;*</text>
<text xml:space="preserve" text-anchor="start" x="78.75" y="-345.75" font-family="Helvetica,sans-Serif" font-size="10.00"> &#160;&#160;&#160;&#160;&#160;&#160;&#160;&#160;&#160;&#160;&#160;# _stream : ostream&amp;</text>
<text xml:space="preserve" text-anchor="start" x="78.75" y="-333.75" font-family="Helvetica,sans-Serif" font-size="10.00"> &#160;&#160;&#160;&#160;&#160;&#160;&#160;&#160;&#160;&#160;&#160;# _values : map&lt;TiffTagType, TiffDataVariant&gt;</text>
<text xml:space="preserve" text-anchor="start" x="78.75" y="-321.75" font-family="Helvetica,sans-Serif" font-size="10.00"> &#160;&#160;&#160;&#160;&#160;&#160;&#160;&#160;&#160;&#160;&#160;# _endian_handler : shared_ptr</text>
<text xml:space="preserve" text-anchor="start" x="78.75" y="-309.75" font-family="Helvetica,sans-Serif" font-size="10.00"> &#160;&#160;&#160;&#160;&#160;&#160;&#160;&#160;&#160;&#160;&#160;# _strip_byte_count : size_t</text>
<text xml:space="preserve" text-anchor="start" x="78.75" y="-297.75" font-family="Helvetica,sans-Serif" font-size="10.00"> &#160;&#160;&#160;&#160;&#160;&#160;&#160;&#160;&#160;&#160;&#160;# _offset_data : uint64_t</text>
<text xml:space="preserve" text-anchor="start" x="78.75" y="-285.75" font-family="Helvetica,sans-Serif" font-size="10.00"> &#160;&#160;&#160;&#160;&#160;&#160;&#160;</text>
<polygon fill="none" stroke="black" points="73.75,-184.5 73.75,-278.5 321.5,-278.5 321.5,-184.5 73.75,-184.5"/>
<text xml:space="preserve" text-anchor="start" x="78.75" y="-263.75" font-family="Helvetica,sans-Serif" font-size="10.00"> &#160;&#160;&#160;&#160;&#160;&#160;&#160;&#160;&#160;&#160;&#160;+ write()</text>
<text xml:space="preserve" text-anchor="start" x="78.75" y="-251.75" font-family="Helvetica,sans-Serif" font-size="10.00"> &#160;&#160;&#160;&#160;&#160;&#160;&#160;&#160;&#160;&#160;&#160;+ write_IFDs()</text>
<text xml:space="preserve" text-anchor="start" x="78.75" y="-239.75" font-family="Helvetica,sans-Serif" font-size="10.00"> &#160;&#160;&#160;&#160;&#160;&#160;&#160;&#160;&#160;&#160;&#160;+ write_image_data()</text>
<text xml:space="preserve" text-anchor="start" x="78.75" y="-227.75" font-family="Helvetica,sans-Serif" font-size="10.00"> &#160;&#160;&#160;&#160;&#160;&#160;&#160;&#160;&#160;&#160;&#160;+ compress(data)</text>
<text xml:space="preserve" text-anchor="start" x="78.75" y="-215.75" font-family="Helvetica,sans-Serif" font-size="10.00"> &#160;&#160;&#160;&#160;&#160;&#160;&#160;&#160;&#160;&#160;&#160;+ apply_PhotometricInterpretation(data)</text>
<text xml:space="preserve" text-anchor="start" x="78.75" y="-203.75" font-family="Helvetica,sans-Serif" font-size="10.00"> &#160;&#160;&#160;&#160;&#160;&#160;&#160;&#160;&#160;&#160;&#160;+ tags_to_set() «pure virtual»</text>
<text xml:space="preserve" text-anchor="start" x="78.75" y="-191.75" font-family="Helvetica,sans-Serif" font-size="10.00"> &#160;&#160;&#160;&#160;&#160;&#160;&#160;</text>
</g>
<!-- TiffWriter&#45;&gt;TiffWriteData -->
<g id="edge6" class="edge">
<title>TiffWriter&#45;&gt;TiffWriteData</title>
<path fill="none" stroke="black" stroke-dasharray="5,2" d="M356.76,-447.13C344.05,-434.86 330.14,-421.43 316.01,-407.79"/>
<polygon fill="black" stroke="black" points="309.01,-401.04 319.33,-404.75 311.73,-403.66 316.21,-407.98 316.21,-407.98 316.21,-407.98 311.73,-403.66 313.08,-411.22 309.01,-401.04"/>
<text xml:space="preserve" text-anchor="middle" x="342.82" y="-420.45" font-family="Helvetica,sans-Serif" font-size="9.00">owns</text>
</g>
<!-- VirtualEndianHandler -->
<g id="node7" class="node">
<title>VirtualEndianHandler</title>
<polygon fill="#1e8449" stroke="none" points="463.5,-89 463.5,-117 667.75,-117 667.75,-89 463.5,-89"/>
<polygon fill="none" stroke="black" points="463.5,-89 463.5,-117 667.75,-117 667.75,-89 463.5,-89"/>
<text xml:space="preserve" text-anchor="start" x="515.38" y="-103.5" font-family="Helvetica,sans-Serif" font-weight="bold" font-size="10.00" fill="white">VirtualEndianHandler</text>
<text xml:space="preserve" text-anchor="start" x="546.88" y="-95.4" font-family="Helvetica,sans-Serif" font-size="8.00" fill="white">«abstract»</text>
<polygon fill="none" stroke="black" points="463.5,-67 463.5,-89 667.75,-89 667.75,-67 463.5,-67"/>
<text xml:space="preserve" text-anchor="start" x="468.5" y="-75.5" font-family="Helvetica,sans-Serif" font-style="italic" font-size="10.00">(no fields)</text>
<polygon fill="none" stroke="black" points="463.5,-21 463.5,-67 667.75,-67 667.75,-21 463.5,-21"/>
<text xml:space="preserve" text-anchor="start" x="468.5" y="-52.25" font-family="Helvetica,sans-Serif" font-size="10.00"> &#160;&#160;&#160;&#160;&#160;&#160;&#160;&#160;&#160;&#160;&#160;+ convert(...) «pure virtual»</text>
<text xml:space="preserve" text-anchor="start" x="468.5" y="-40.25" font-family="Helvetica,sans-Serif" font-size="10.00"> &#160;&#160;&#160;&#160;&#160;&#160;&#160;&#160;&#160;&#160;&#160;+ convert_to_array(...) «pure virtual»</text>
<text xml:space="preserve" text-anchor="start" x="468.5" y="-28.25" font-family="Helvetica,sans-Serif" font-size="10.00"> &#160;&#160;&#160;&#160;&#160;&#160;&#160;</text>
</g>
<!-- TiffWriteData&#45;&gt;VirtualEndianHandler -->
<g id="edge7" class="edge">
<title>TiffWriteData&#45;&gt;VirtualEndianHandler</title>
<path fill="none" stroke="black" stroke-dasharray="5,2" d="M321.22,-190.63C324.36,-188.53 327.5,-186.48 330.62,-184.5 369.22,-160.01 413.82,-137.07 453.72,-118.25"/>
<polygon fill="black" stroke="black" points="462.66,-114.07 455.51,-122.38 459.23,-115.67 453.6,-118.3 453.6,-118.3 453.6,-118.3 459.23,-115.67 451.69,-114.23 462.66,-114.07"/>
</g>
<!-- ImageContainer -->
<g id="node9" class="node">
<title>ImageContainer</title>
<polygon fill="#7d3c98" stroke="none" points="0,-116 0,-138 195.25,-138 195.25,-116 0,-116"/>
<polygon fill="none" stroke="black" points="0,-116 0,-138 195.25,-138 195.25,-116 0,-116"/>
<text xml:space="preserve" text-anchor="start" x="48.12" y="-124.5" font-family="Helvetica,sans-Serif" font-weight="bold" font-size="10.00" fill="white">ImageContainer&lt;PT&gt;</text>
<polygon fill="none" stroke="black" points="0,-58 0,-116 195.25,-116 195.25,-58 0,-58"/>
<text xml:space="preserve" text-anchor="start" x="5" y="-101.25" font-family="Helvetica,sans-Serif" font-size="10.00"> &#160;&#160;&#160;&#160;&#160;&#160;&#160;&#160;&#160;&#160;&#160;&#45; _img : vector&lt;PT&gt;</text>
<text xml:space="preserve" text-anchor="start" x="5" y="-89.25" font-family="Helvetica,sans-Serif" font-size="10.00"> &#160;&#160;&#160;&#160;&#160;&#160;&#160;&#160;&#160;&#160;&#160;&#45; _row_length : size_t</text>
<text xml:space="preserve" text-anchor="start" x="5" y="-77.25" font-family="Helvetica,sans-Serif" font-size="10.00"> &#160;&#160;&#160;&#160;&#160;&#160;&#160;&#160;&#160;&#160;&#160;&#45; _pixel_number_of_colors : size_t</text>
<text xml:space="preserve" text-anchor="start" x="5" y="-65.25" font-family="Helvetica,sans-Serif" font-size="10.00"> &#160;&#160;&#160;&#160;&#160;&#160;&#160;</text>
<polygon fill="none" stroke="black" points="0,0 0,-58 195.25,-58 195.25,0 0,0"/>
<text xml:space="preserve" text-anchor="start" x="5" y="-43.25" font-family="Helvetica,sans-Serif" font-size="10.00"> &#160;&#160;&#160;&#160;&#160;&#160;&#160;&#160;&#160;&#160;&#160;+ at(row, col, px) : PT</text>
<text xml:space="preserve" text-anchor="start" x="5" y="-31.25" font-family="Helvetica,sans-Serif" font-size="10.00"> &#160;&#160;&#160;&#160;&#160;&#160;&#160;&#160;&#160;&#160;&#160;+ get_width() / get_height()</text>
<text xml:space="preserve" text-anchor="start" x="5" y="-19.25" font-family="Helvetica,sans-Serif" font-size="10.00"> &#160;&#160;&#160;&#160;&#160;&#160;&#160;&#160;&#160;&#160;&#160;+ get_data() : vector&lt;PT&gt;</text>
<text xml:space="preserve" text-anchor="start" x="5" y="-7.25" font-family="Helvetica,sans-Serif" font-size="10.00"> &#160;&#160;&#160;&#160;&#160;&#160;&#160;</text>
</g>
<!-- TiffWriteData&#45;&gt;ImageContainer -->
<g id="edge8" class="edge">
<title>TiffWriteData&#45;&gt;ImageContainer</title>
<path fill="none" stroke="black" stroke-dasharray="5,2" d="M149.38,-184.64C143.76,-172.2 138.12,-159.69 132.72,-147.74"/>
<polygon fill="black" stroke="black" points="128.76,-138.96 136.97,-146.22 130.31,-142.41 132.87,-148.07 132.87,-148.07 132.87,-148.07 130.31,-142.41 128.77,-149.93 128.76,-138.96"/>
<text xml:space="preserve" text-anchor="middle" x="150.29" y="-157.95" font-family="Helvetica,sans-Serif" font-size="9.00">reads</text>
</g>
<!-- PackBits -->
<g id="node10" class="node">
<title>PackBits</title>
<polygon fill="#616a6b" stroke="none" points="213.38,-89 213.38,-117 383.88,-117 383.88,-89 213.38,-89"/>
<polygon fill="none" stroke="black" points="213.38,-89 213.38,-117 383.88,-117 383.88,-89 213.38,-89"/>
<text xml:space="preserve" text-anchor="start" x="278" y="-103.5" font-family="Helvetica,sans-Serif" font-weight="bold" font-size="10.00" fill="white">PackBits</text>
<text xml:space="preserve" text-anchor="start" x="285.5" y="-95.4" font-family="Helvetica,sans-Serif" font-size="8.00" fill="white">«utility»</text>
<polygon fill="none" stroke="black" points="213.38,-67 213.38,-89 383.88,-89 383.88,-67 213.38,-67"/>
<text xml:space="preserve" text-anchor="start" x="218.38" y="-75.5" font-family="Helvetica,sans-Serif" font-style="italic" font-size="10.00">(no fields)</text>
<polygon fill="none" stroke="black" points="213.38,-21 213.38,-67 383.88,-67 383.88,-21 213.38,-21"/>
<text xml:space="preserve" text-anchor="start" x="218.38" y="-52.25" font-family="Helvetica,sans-Serif" font-size="10.00"> &#160;&#160;&#160;&#160;&#160;&#160;&#160;&#160;&#160;&#160;&#160;+ compress(data) «static»</text>
<text xml:space="preserve" text-anchor="start" x="218.38" y="-40.25" font-family="Helvetica,sans-Serif" font-size="10.00"> &#160;&#160;&#160;&#160;&#160;&#160;&#160;&#160;&#160;&#160;&#160;+ decompress(data) «static»</text>
<text xml:space="preserve" text-anchor="start" x="218.38" y="-28.25" font-family="Helvetica,sans-Serif" font-size="10.00"> &#160;&#160;&#160;&#160;&#160;&#160;&#160;</text>
</g>
<!-- TiffWriteData&#45;&gt;PackBits -->
<g id="edge9" class="edge">
<title>TiffWriteData&#45;&gt;PackBits</title>
<path fill="none" stroke="black" stroke-dasharray="5,2" d="M246.35,-184.64C255.42,-164.76 264.56,-144.71 272.61,-127.06"/>
<polygon fill="black" stroke="black" points="276.7,-118.07 276.65,-129.04 275.14,-121.51 272.56,-127.17 272.56,-127.17 272.56,-127.17 275.14,-121.51 268.46,-125.3 276.7,-118.07"/>
<text xml:space="preserve" text-anchor="middle" x="266.92" y="-157.95" font-family="Helvetica,sans-Serif" font-size="9.00">uses</text>
</g>
<!-- BitlevelImage -->
<g id="node4" class="node">
<title>BitlevelImage</title>
<polygon fill="#f1948a" stroke="none" points="117.62,-527 117.62,-549 277.62,-549 277.62,-527 117.62,-527"/>
<polygon fill="none" stroke="black" points="117.62,-527 117.62,-549 277.62,-549 277.62,-527 117.62,-527"/>
<text xml:space="preserve" text-anchor="start" x="165.75" y="-535.5" font-family="Helvetica,sans-Serif" font-weight="bold" font-size="10.00">BitlevelImage</text>
<polygon fill="none" stroke="black" points="117.62,-493 117.62,-527 277.62,-527 277.62,-493 117.62,-493"/>
<text xml:space="preserve" text-anchor="start" x="122.62" y="-512.25" font-family="Helvetica,sans-Serif" font-size="10.00"> &#160;&#160;&#160;&#160;&#160;&#160;&#160;&#160;&#160;&#160;&#160;&#45; _config : TiffWriterConfig</text>
<text xml:space="preserve" text-anchor="start" x="122.62" y="-500.25" font-family="Helvetica,sans-Serif" font-size="10.00"> &#160;&#160;&#160;&#160;&#160;&#160;&#160;</text>
<polygon fill="none" stroke="black" points="117.62,-459 117.62,-493 277.62,-493 277.62,-459 117.62,-459"/>
<text xml:space="preserve" text-anchor="start" x="122.62" y="-478.25" font-family="Helvetica,sans-Serif" font-size="10.00"> &#160;&#160;&#160;&#160;&#160;&#160;&#160;&#160;&#160;&#160;&#160;+ tags_to_set() «override»</text>
<text xml:space="preserve" text-anchor="start" x="122.62" y="-466.25" font-family="Helvetica,sans-Serif" font-size="10.00"> &#160;&#160;&#160;&#160;&#160;&#160;&#160;</text>
</g>
<!-- BitlevelImage&#45;&gt;TiffWriteData -->
<g id="edge1" class="edge">
<title>BitlevelImage&#45;&gt;TiffWriteData</title>
<path fill="none" stroke="black" d="M197.62,-459.08C197.62,-444.91 197.62,-428.46 197.62,-411.54"/>
<polygon fill="none" stroke="black" points="201.13,-411.89 197.63,-401.89 194.13,-411.89 201.13,-411.89"/>
</g>
<!-- GrayImage -->
<g id="node5" class="node">
<title>GrayImage</title>
<polygon fill="#fadbd8" stroke="none" points="28.62,-654 28.62,-676 188.62,-676 188.62,-654 28.62,-654"/>
<polygon fill="none" stroke="black" points="28.62,-654 28.62,-676 188.62,-676 188.62,-654 28.62,-654"/>
<text xml:space="preserve" text-anchor="start" x="83.5" y="-662.5" font-family="Helvetica,sans-Serif" font-weight="bold" font-size="10.00">GrayImage</text>
<polygon fill="none" stroke="black" points="28.62,-632 28.62,-654 188.62,-654 188.62,-632 28.62,-632"/>
<text xml:space="preserve" text-anchor="start" x="33.62" y="-640.5" font-family="Helvetica,sans-Serif" font-style="italic" font-size="10.00">(inherits all)</text>
<polygon fill="none" stroke="black" points="28.62,-598 28.62,-632 188.62,-632 188.62,-598 28.62,-598"/>
<text xml:space="preserve" text-anchor="start" x="33.62" y="-617.25" font-family="Helvetica,sans-Serif" font-size="10.00"> &#160;&#160;&#160;&#160;&#160;&#160;&#160;&#160;&#160;&#160;&#160;+ tags_to_set() «override»</text>
<text xml:space="preserve" text-anchor="start" x="33.62" y="-605.25" font-family="Helvetica,sans-Serif" font-size="10.00"> &#160;&#160;&#160;&#160;&#160;&#160;&#160;</text>
</g>
<!-- GrayImage&#45;&gt;BitlevelImage -->
<g id="edge2" class="edge">
<title>GrayImage&#45;&gt;BitlevelImage</title>
<path fill="none" stroke="black" d="M134.37,-598.11C142.88,-585.58 152.51,-571.41 161.64,-557.97"/>
<polygon fill="none" stroke="black" points="164.29,-560.3 167.01,-550.06 158.5,-556.37 164.29,-560.3"/>
</g>
<!-- RGBImage -->
<g id="node6" class="node">
<title>RGBImage</title>
<polygon fill="#fadbd8" stroke="none" points="206.62,-654 206.62,-676 366.62,-676 366.62,-654 206.62,-654"/>
<polygon fill="none" stroke="black" points="206.62,-654 206.62,-676 366.62,-676 366.62,-654 206.62,-654"/>
<text xml:space="preserve" text-anchor="start" x="261.12" y="-662.5" font-family="Helvetica,sans-Serif" font-weight="bold" font-size="10.00">RGBImage</text>
<polygon fill="none" stroke="black" points="206.62,-632 206.62,-654 366.62,-654 366.62,-632 206.62,-632"/>
<text xml:space="preserve" text-anchor="start" x="211.62" y="-640.5" font-family="Helvetica,sans-Serif" font-style="italic" font-size="10.00">(inherits all)</text>
<polygon fill="none" stroke="black" points="206.62,-598 206.62,-632 366.62,-632 366.62,-598 206.62,-598"/>
<text xml:space="preserve" text-anchor="start" x="211.62" y="-617.25" font-family="Helvetica,sans-Serif" font-size="10.00"> &#160;&#160;&#160;&#160;&#160;&#160;&#160;&#160;&#160;&#160;&#160;+ tags_to_set() «override»</text>
<text xml:space="preserve" text-anchor="start" x="211.62" y="-605.25" font-family="Helvetica,sans-Serif" font-size="10.00"> &#160;&#160;&#160;&#160;&#160;&#160;&#160;</text>
</g>
<!-- RGBImage&#45;&gt;BitlevelImage -->
<g id="edge3" class="edge">
<title>RGBImage&#45;&gt;BitlevelImage</title>
<path fill="none" stroke="black" d="M260.88,-598.11C252.37,-585.58 242.74,-571.41 233.61,-557.97"/>
<polygon fill="none" stroke="black" points="236.75,-556.37 228.24,-550.06 230.96,-560.3 236.75,-556.37"/>
</g>
<!-- LittleEndian_TIFF -->
<g id="node8" class="node">
<title>LittleEndian_TIFF</title>
<polygon fill="#52be80" stroke="none" points="531.25,-315.5 531.25,-337.5 722,-337.5 722,-315.5 531.25,-315.5"/>
<polygon fill="none" stroke="black" points="531.25,-315.5 531.25,-337.5 722,-337.5 722,-315.5 531.25,-315.5"/>
<text xml:space="preserve" text-anchor="start" x="585.38" y="-324" font-family="Helvetica,sans-Serif" font-weight="bold" font-size="10.00">LittleEndian_TIFF</text>
<polygon fill="none" stroke="black" points="531.25,-293.5 531.25,-315.5 722,-315.5 722,-293.5 531.25,-293.5"/>
<text xml:space="preserve" text-anchor="start" x="536.25" y="-302" font-family="Helvetica,sans-Serif" font-style="italic" font-size="10.00">(no fields)</text>
<polygon fill="none" stroke="black" points="531.25,-247.5 531.25,-293.5 722,-293.5 722,-247.5 531.25,-247.5"/>
<text xml:space="preserve" text-anchor="start" x="536.25" y="-278.75" font-family="Helvetica,sans-Serif" font-size="10.00"> &#160;&#160;&#160;&#160;&#160;&#160;&#160;&#160;&#160;&#160;&#160;+ convert(...) «override»</text>
<text xml:space="preserve" text-anchor="start" x="536.25" y="-266.75" font-family="Helvetica,sans-Serif" font-size="10.00"> &#160;&#160;&#160;&#160;&#160;&#160;&#160;&#160;&#160;&#160;&#160;+ convert_to_array(...) «override»</text>
<text xml:space="preserve" text-anchor="start" x="536.25" y="-254.75" font-family="Helvetica,sans-Serif" font-size="10.00"> &#160;&#160;&#160;&#160;&#160;&#160;&#160;</text>
</g>
<!-- LittleEndian_TIFF&#45;&gt;VirtualEndianHandler -->
<g id="edge4" class="edge">
<title>LittleEndian_TIFF&#45;&gt;VirtualEndianHandler</title>
<path fill="none" stroke="black" d="M614.57,-247.74C605.09,-213.31 591.8,-165.06 581.46,-127.51"/>
<polygon fill="none" stroke="black" points="584.93,-126.9 578.9,-118.19 578.18,-128.76 584.93,-126.9"/>
</g>
</g>
</svg>
