<?xml version="1.0" encoding="UTF-8" standalone="no"?>
<!DOCTYPE svg PUBLIC "-//W3C//DTD SVG 1.1//EN"
 "http://www.w3.org/Graphics/SVG/1.1/DTD/svg11.dtd">
<!-- Generated by graphviz version 14.1.5 (20260411.2331)
 -->
<!-- Title: TiffReader Pages: 1 -->
<svg width="1026pt" height="488pt"
 viewBox="0.00 0.00 1026.00 488.00" xmlns="http://www.w3.org/2000/svg" xmlns:xlink="http://www.w3.org/1999/xlink">
<g id="graph0" class="graph" transform="scale(1 1) rotate(0) translate(4 483.5)">
<title>TiffReader</title>
<polygon fill="white" stroke="none" points="-4,4 -4,-483.5 1021.62,-483.5 1021.62,4 -4,4"/>
<!-- TiffReader -->
<g id="node1" class="node">
<title>TiffReader</title>
<polygon fill="#2e86c1" stroke="none" points="221.5,-457.5 221.5,-479.5 419.75,-479.5 419.75,-457.5 221.5,-457.5"/>
<polygon fill="none" stroke="black" points="221.5,-457.5 221.5,-479.5 419.75,-479.5 419.75,-457.5 221.5,-457.5"/>
<text xml:space="preserve" text-anchor="start" x="296.62" y="-466" font-family="Helvetica,sans-Serif" font-weight="bold" font-size="10.00" fill="white">TiffReader</text>
<polygon fill="none" stroke="black" points="221.5,-387.5 221.5,-457.5 419.75,-457.5 419.75,-387.5 221.5,-387.5"/>
<text xml:space="preserve" text-anchor="start" x="226.5" y="-442.75" font-family="Helvetica,sans-Serif" font-size="10.00"> &#160;&#160;&#160;&#160;&#160;&#160;&#160;&#160;&#160;&#160;&#160;&#45; _header : optional&lt;TIFFHeader&gt;</text>
<text xml:space="preserve" text-anchor="start" x="226.5" y="-430.75" font-family="Helvetica,sans-Serif" font-size="10.00"> &#160;&#160;&#160;&#160;&#160;&#160;&#160;&#160;&#160;&#160;&#160;&#45; _ifds : optional&lt;TiffIFD&gt;</text>
<text xml:space="preserve" text-anchor="start" x="226.5" y="-418.75" font-family="Helvetica,sans-Serif" font-size="10.00"> &#160;&#160;&#160;&#160;&#160;&#160;&#160;&#160;&#160;&#160;&#160;&#45; _strips : optional&lt;TiffReadStrips&gt;</text>
<text xml:space="preserve" text-anchor="start" x="226.5" y="-406.75" font-family="Helvetica,sans-Serif" font-size="10.00"> &#160;&#160;&#160;&#160;&#160;&#160;&#160;&#160;&#160;&#160;&#160;&#45; _file : ifstream</text>
<text xml:space="preserve" text-anchor="start" x="226.5" y="-394.75" font-family="Helvetica,sans-Serif" font-size="10.00"> &#160;&#160;&#160;&#160;&#160;&#160;&#160;</text>
<polygon fill="none" stroke="black" points="221.5,-341.5 221.5,-387.5 419.75,-387.5 419.75,-341.5 221.5,-341.5"/>
<text xml:space="preserve" text-anchor="start" x="226.5" y="-372.75" font-family="Helvetica,sans-Serif" font-size="10.00"> &#160;&#160;&#160;&#160;&#160;&#160;&#160;&#160;&#160;&#160;&#160;+ read()</text>
<text xml:space="preserve" text-anchor="start" x="226.5" y="-360.75" font-family="Helvetica,sans-Serif" font-size="10.00"> &#160;&#160;&#160;&#160;&#160;&#160;&#160;&#160;&#160;&#160;&#160;+ get_image() : ImageContainer</text>
<text xml:space="preserve" text-anchor="start" x="226.5" y="-348.75" font-family="Helvetica,sans-Serif" font-size="10.00"> &#160;&#160;&#160;&#160;&#160;&#160;&#160;</text>
</g>
<!-- TIFFHeader -->
<g id="node2" class="node">
<title>TIFFHeader</title>
<polygon fill="#5dade2" stroke="none" points="845.62,-273 845.62,-295 1017.62,-295 1017.62,-273 845.62,-273"/>
<polygon fill="none" stroke="black" points="845.62,-273 845.62,-295 1017.62,-295 1017.62,-273 845.62,-273"/>
<text xml:space="preserve" text-anchor="start" x="904.62" y="-281.5" font-family="Helvetica,sans-Serif" font-weight="bold" font-size="10.00">TIFFHeader</text>
<polygon fill="none" stroke="black" points="845.62,-203 845.62,-273 1017.62,-273 1017.62,-203 845.62,-203"/>
<text xml:space="preserve" text-anchor="start" x="850.62" y="-258.25" font-family="Helvetica,sans-Serif" font-size="10.00"> &#160;&#160;&#160;&#160;&#160;&#160;&#160;&#160;&#160;&#160;&#160;&#45; _stream : istream&amp;</text>
<text xml:space="preserve" text-anchor="start" x="850.62" y="-246.25" font-family="Helvetica,sans-Serif" font-size="10.00"> &#160;&#160;&#160;&#160;&#160;&#160;&#160;&#160;&#160;&#160;&#160;&#45; magic_num : ushort_t</text>
<text xml:space="preserve" text-anchor="start" x="850.62" y="-234.25" font-family="Helvetica,sans-Serif" font-size="10.00"> &#160;&#160;&#160;&#160;&#160;&#160;&#160;&#160;&#160;&#160;&#160;&#45; idf_offset : uint_t</text>
<text xml:space="preserve" text-anchor="start" x="850.62" y="-222.25" font-family="Helvetica,sans-Serif" font-size="10.00"> &#160;&#160;&#160;&#160;&#160;&#160;&#160;&#160;&#160;&#160;&#160;&#45; endian_handler : shared_ptr</text>
<text xml:space="preserve" text-anchor="start" x="850.62" y="-210.25" font-family="Helvetica,sans-Serif" font-size="10.00"> &#160;&#160;&#160;&#160;&#160;&#160;&#160;</text>
<polygon fill="none" stroke="black" points="845.62,-145 845.62,-203 1017.62,-203 1017.62,-145 845.62,-145"/>
<text xml:space="preserve" text-anchor="start" x="850.62" y="-188.25" font-family="Helvetica,sans-Serif" font-size="10.00"> &#160;&#160;&#160;&#160;&#160;&#160;&#160;&#160;&#160;&#160;&#160;+ parse_header()</text>
<text xml:space="preserve" text-anchor="start" x="850.62" y="-176.25" font-family="Helvetica,sans-Serif" font-size="10.00"> &#160;&#160;&#160;&#160;&#160;&#160;&#160;&#160;&#160;&#160;&#160;+ get_idf_offset() : uint_t</text>
<text xml:space="preserve" text-anchor="start" x="850.62" y="-164.25" font-family="Helvetica,sans-Serif" font-size="10.00"> &#160;&#160;&#160;&#160;&#160;&#160;&#160;&#160;&#160;&#160;&#160;+ get_endian_handler()</text>
<text xml:space="preserve" text-anchor="start" x="850.62" y="-152.25" font-family="Helvetica,sans-Serif" font-size="10.00"> &#160;&#160;&#160;&#160;&#160;&#160;&#160;</text>
</g>
<!-- TiffReader&#45;&gt;TIFFHeader -->
<g id="edge3" class="edge">
<title>TiffReader&#45;&gt;TIFFHeader</title>
<path fill="none" stroke="black" stroke-dasharray="5,2" d="M419.55,-347.27C424.57,-345.14 429.6,-343.2 434.62,-341.5 601.65,-284.94 667.58,-360.08 835.69,-294.89"/>
<polygon fill="black" stroke="black" points="844.72,-291.28 837.11,-299.17 841.21,-292.68 835.44,-294.99 835.44,-294.99 835.44,-294.99 841.21,-292.68 833.77,-290.81 844.72,-291.28"/>
<text xml:space="preserve" text-anchor="middle" x="790.47" y="-314.95" font-family="Helvetica,sans-Serif" font-size="9.00">uses</text>
</g>
<!-- TiffIFD -->
<g id="node3" class="node">
<title>TiffIFD</title>
<polygon fill="#5dade2" stroke="none" points="213.5,-273 213.5,-295 417.75,-295 417.75,-273 213.5,-273"/>
<polygon fill="none" stroke="black" points="213.5,-273 213.5,-295 417.75,-295 417.75,-273 213.5,-273"/>
<text xml:space="preserve" text-anchor="start" x="299.88" y="-281.5" font-family="Helvetica,sans-Serif" font-weight="bold" font-size="10.00">TiffIFD</text>
<polygon fill="none" stroke="black" points="213.5,-203 213.5,-273 417.75,-273 417.75,-203 213.5,-203"/>
<text xml:space="preserve" text-anchor="start" x="218.5" y="-258.25" font-family="Helvetica,sans-Serif" font-size="10.00"> &#160;&#160;&#160;&#160;&#160;&#160;&#160;&#160;&#160;&#160;&#160;&#45; _stream : istream&amp;</text>
<text xml:space="preserve" text-anchor="start" x="218.5" y="-246.25" font-family="Helvetica,sans-Serif" font-size="10.00"> &#160;&#160;&#160;&#160;&#160;&#160;&#160;&#160;&#160;&#160;&#160;&#45; _address : uint_t</text>
<text xml:space="preserve" text-anchor="start" x="218.5" y="-234.25" font-family="Helvetica,sans-Serif" font-size="10.00"> &#160;&#160;&#160;&#160;&#160;&#160;&#160;&#160;&#160;&#160;&#160;&#45; _tagList : vector&lt;TiffTag&gt;</text>
<text xml:space="preserve" text-anchor="start" x="218.5" y="-222.25" font-family="Helvetica,sans-Serif" font-size="10.00"> &#160;&#160;&#160;&#160;&#160;&#160;&#160;&#160;&#160;&#160;&#160;&#45; _endian_handler : shared_ptr</text>
<text xml:space="preserve" text-anchor="start" x="218.5" y="-210.25" font-family="Helvetica,sans-Serif" font-size="10.00"> &#160;&#160;&#160;&#160;&#160;&#160;&#160;</text>
<polygon fill="none" stroke="black" points="213.5,-145 213.5,-203 417.75,-203 417.75,-145 213.5,-145"/>
<text xml:space="preserve" text-anchor="start" x="218.5" y="-188.25" font-family="Helvetica,sans-Serif" font-size="10.00"> &#160;&#160;&#160;&#160;&#160;&#160;&#160;&#160;&#160;&#160;&#160;+ read()</text>
<text xml:space="preserve" text-anchor="start" x="218.5" y="-176.25" font-family="Helvetica,sans-Serif" font-size="10.00"> &#160;&#160;&#160;&#160;&#160;&#160;&#160;&#160;&#160;&#160;&#160;+ getTag(TiffTagType) : TiffTag</text>
<text xml:space="preserve" text-anchor="start" x="218.5" y="-164.25" font-family="Helvetica,sans-Serif" font-size="10.00"> &#160;&#160;&#160;&#160;&#160;&#160;&#160;&#160;&#160;&#160;&#160;+ read_tiff_tag(TiffTag) : TiffTagRead</text>
<text xml:space="preserve" text-anchor="start" x="218.5" y="-152.25" font-family="Helvetica,sans-Serif" font-size="10.00"> &#160;&#160;&#160;&#160;&#160;&#160;&#160;</text>
</g>
<!-- TiffReader&#45;&gt;TiffIFD -->
<g id="edge4" class="edge">
<title>TiffReader&#45;&gt;TiffIFD</title>
<path fill="none" stroke="black" stroke-dasharray="5,2" d="M318.83,-341.71C318.52,-330.08 318.19,-317.85 317.88,-305.84"/>
<polygon fill="black" stroke="black" points="317.62,-296.1 322.38,-305.98 317.72,-299.88 317.88,-306.1 317.88,-306.1 317.88,-306.1 317.72,-299.88 313.38,-306.22 317.62,-296.1"/>
<text xml:space="preserve" text-anchor="middle" x="328.02" y="-314.95" font-family="Helvetica,sans-Serif" font-size="9.00">uses</text>
</g>
<!-- TiffReadStrips -->
<g id="node4" class="node">
<title>TiffReadStrips</title>
<polygon fill="#5dade2" stroke="none" points="435.62,-264 435.62,-292 619.62,-292 619.62,-264 435.62,-264"/>
<polygon fill="none" stroke="black" points="435.62,-264 435.62,-292 619.62,-292 619.62,-264 435.62,-264"/>
<text xml:space="preserve" text-anchor="start" x="494.25" y="-278.5" font-family="Helvetica,sans-Serif" font-weight="bold" font-size="10.00">TiffReadStrips</text>
<text xml:space="preserve" text-anchor="start" x="508.88" y="-270.4" font-family="Helvetica,sans-Serif" font-size="8.00">«abstract»</text>
<polygon fill="none" stroke="black" points="435.62,-206 435.62,-264 619.62,-264 619.62,-206 435.62,-206"/>
<text xml:space="preserve" text-anchor="start" x="440.62" y="-249.25" font-family="Helvetica,sans-Serif" font-size="10.00"> &#160;&#160;&#160;&#160;&#160;&#160;&#160;&#160;&#160;&#160;&#160;&#45; _stream : istream&amp;</text>
<text xml:space="preserve" text-anchor="start" x="440.62" y="-237.25" font-family="Helvetica,sans-Serif" font-size="10.00"> &#160;&#160;&#160;&#160;&#160;&#160;&#160;&#160;&#160;&#160;&#160;&#45; _ifd : TiffIFD&amp;</text>
<text xml:space="preserve" text-anchor="start" x="440.62" y="-225.25" font-family="Helvetica,sans-Serif" font-size="10.00"> &#160;&#160;&#160;&#160;&#160;&#160;&#160;&#160;&#160;&#160;&#160;&#45; _endian_handler : shared_ptr</text>
<text xml:space="preserve" text-anchor="start" x="440.62" y="-213.25" font-family="Helvetica,sans-Serif" font-size="10.00"> &#160;&#160;&#160;&#160;&#160;&#160;&#160;</text>
<polygon fill="none" stroke="black" points="435.62,-148 435.62,-206 619.62,-206 619.62,-148 435.62,-148"/>
<text xml:space="preserve" text-anchor="start" x="440.62" y="-191.25" font-family="Helvetica,sans-Serif" font-size="10.00"> &#160;&#160;&#160;&#160;&#160;&#160;&#160;&#160;&#160;&#160;&#160;+ readStrips() : string</text>
<text xml:space="preserve" text-anchor="start" x="440.62" y="-179.25" font-family="Helvetica,sans-Serif" font-size="10.00"> &#160;&#160;&#160;&#160;&#160;&#160;&#160;&#160;&#160;&#160;&#160;+ get_image() : ImageContainer</text>
<text xml:space="preserve" text-anchor="start" x="440.62" y="-167.25" font-family="Helvetica,sans-Serif" font-size="10.00"> &#160;&#160;&#160;&#160;&#160;&#160;&#160;&#160;&#160;&#160;&#160;+ reformat_strip() «virtual»</text>
<text xml:space="preserve" text-anchor="start" x="440.62" y="-155.25" font-family="Helvetica,sans-Serif" font-size="10.00"> &#160;&#160;&#160;&#160;&#160;&#160;&#160;</text>
</g>
<!-- TiffReader&#45;&gt;TiffReadStrips -->
<g id="edge5" class="edge">
<title>TiffReader&#45;&gt;TiffReadStrips</title>
<path fill="none" stroke="black" stroke-dasharray="5,2" d="M395.06,-341.71C410.17,-327.96 426.17,-313.39 441.63,-299.31"/>
<polygon fill="black" stroke="black" points="448.76,-292.82 444.39,-302.88 445.96,-295.37 441.36,-299.55 441.36,-299.55 441.36,-299.55 445.96,-295.37 438.33,-296.22 448.76,-292.82"/>
<text xml:space="preserve" text-anchor="middle" x="433.88" y="-314.95" font-family="Helvetica,sans-Serif" font-size="9.00">uses</text>
</g>
<!-- ImageContainer -->
<g id="node8" class="node">
<title>ImageContainer</title>
<polygon fill="#7d3c98" stroke="none" points="0,-273 0,-295 195.25,-295 195.25,-273 0,-273"/>
<polygon fill="none" stroke="black" points="0,-273 0,-295 195.25,-295 195.25,-273 0,-273"/>
<text xml:space="preserve" text-anchor="start" x="48.12" y="-281.5" font-family="Helvetica,sans-Serif" font-weight="bold" font-size="10.00" fill="white">ImageContainer&lt;PT&gt;</text>
<polygon fill="none" stroke="black" points="0,-215 0,-273 195.25,-273 195.25,-215 0,-215"/>
<text xml:space="preserve" text-anchor="start" x="5" y="-258.25" font-family="Helvetica,sans-Serif" font-size="10.00"> &#160;&#160;&#160;&#160;&#160;&#160;&#160;&#160;&#160;&#160;&#160;&#45; _img : vector&lt;PT&gt;</text>
<text xml:space="preserve" text-anchor="start" x="5" y="-246.25" font-family="Helvetica,sans-Serif" font-size="10.00"> &#160;&#160;&#160;&#160;&#160;&#160;&#160;&#160;&#160;&#160;&#160;&#45; _row_length : size_t</text>
<text xml:space="preserve" text-anchor="start" x="5" y="-234.25" font-family="Helvetica,sans-Serif" font-size="10.00"> &#160;&#160;&#160;&#160;&#160;&#160;&#160;&#160;&#160;&#160;&#160;&#45; _pixel_number_of_colors : size_t</text>
<text xml:space="preserve" text-anchor="start" x="5" y="-222.25" font-family="Helvetica,sans-Serif" font-size="10.00"> &#160;&#160;&#160;&#160;&#160;&#160;&#160;</text>
<polygon fill="none" stroke="black" points="0,-145 0,-215 195.25,-215 195.25,-145 0,-145"/>
<text xml:space="preserve" text-anchor="start" x="5" y="-200.25" font-family="Helvetica,sans-Serif" font-size="10.00"> &#160;&#160;&#160;&#160;&#160;&#160;&#160;&#160;&#160;&#160;&#160;+ at(row, col, px) : PT</text>
<text xml:space="preserve" text-anchor="start" x="5" y="-188.25" font-family="Helvetica,sans-Serif" font-size="10.00"> &#160;&#160;&#160;&#160;&#160;&#160;&#160;&#160;&#160;&#160;&#160;+ get_width() : size_t</text>
<text xml:space="preserve" text-anchor="start" x="5" y="-176.25" font-family="Helvetica,sans-Serif" font-size="10.00"> &#160;&#160;&#160;&#160;&#160;&#160;&#160;&#160;&#160;&#160;&#160;+ get_height() : size_t</text>
<text xml:space="preserve" text-anchor="start" x="5" y="-164.25" font-family="Helvetica,sans-Serif" font-size="10.00"> &#160;&#160;&#160;&#160;&#160;&#160;&#160;&#160;&#160;&#160;&#160;+ append_row(container)</text>
<text xml:space="preserve" text-anchor="start" x="5" y="-152.25" font-family="Helvetica,sans-Serif" font-size="10.00"> &#160;&#160;&#160;&#160;&#160;&#160;&#160;</text>
</g>
<!-- TiffReader&#45;&gt;ImageContainer -->
<g id="edge6" class="edge">
<title>TiffReader&#45;&gt;ImageContainer</title>
<path fill="none" stroke="black" stroke-dasharray="5,2" d="M240.43,-341.71C225.12,-328.77 208.95,-315.1 193.21,-301.8"/>
<polygon fill="black" stroke="black" points="185.96,-295.67 196.5,-298.69 188.85,-298.11 193.6,-302.13 193.6,-302.13 193.6,-302.13 188.85,-298.11 190.69,-305.56 185.96,-295.67"/>
<text xml:space="preserve" text-anchor="middle" x="234.94" y="-314.95" font-family="Helvetica,sans-Serif" font-size="9.00">produces</text>
</g>
<!-- VirtualEndianHandler -->
<g id="node6" class="node">
<title>VirtualEndianHandler</title>
<polygon fill="#1e8449" stroke="none" points="578.5,-80 578.5,-108 782.75,-108 782.75,-80 578.5,-80"/>
<polygon fill="none" stroke="black" points="578.5,-80 578.5,-108 782.75,-108 782.75,-80 578.5,-80"/>
<text xml:space="preserve" text-anchor="start" x="630.38" y="-94.5" font-family="Helvetica,sans-Serif" font-weight="bold" font-size="10.00" fill="white">VirtualEndianHandler</text>
<text xml:space="preserve" text-anchor="start" x="661.88" y="-86.4" font-family="Helvetica,sans-Serif" font-size="8.00" fill="white">«abstract»</text>
<polygon fill="none" stroke="black" points="578.5,-58 578.5,-80 782.75,-80 782.75,-58 578.5,-58"/>
<text xml:space="preserve" text-anchor="start" x="583.5" y="-66.5" font-family="Helvetica,sans-Serif" font-style="italic" font-size="10.00">(no fields)</text>
<polygon fill="none" stroke="black" points="578.5,0 578.5,-58 782.75,-58 782.75,0 578.5,0"/>
<text xml:space="preserve" text-anchor="start" x="583.5" y="-43.25" font-family="Helvetica,sans-Serif" font-size="10.00"> &#160;&#160;&#160;&#160;&#160;&#160;&#160;&#160;&#160;&#160;&#160;+ convert(...) «pure virtual»</text>
<text xml:space="preserve" text-anchor="start" x="583.5" y="-31.25" font-family="Helvetica,sans-Serif" font-size="10.00"> &#160;&#160;&#160;&#160;&#160;&#160;&#160;&#160;&#160;&#160;&#160;+ convert_to_array(...) «pure virtual»</text>
<text xml:space="preserve" text-anchor="start" x="583.5" y="-19.25" font-family="Helvetica,sans-Serif" font-size="10.00"> &#160;&#160;&#160;&#160;&#160;&#160;&#160;&#160;&#160;&#160;&#160;+ get_endian_value() «pure virtual»</text>
<text xml:space="preserve" text-anchor="start" x="583.5" y="-7.25" font-family="Helvetica,sans-Serif" font-size="10.00"> &#160;&#160;&#160;&#160;&#160;&#160;&#160;</text>
</g>
<!-- TIFFHeader&#45;&gt;VirtualEndianHandler -->
<g id="edge7" class="edge">
<title>TIFFHeader&#45;&gt;VirtualEndianHandler</title>
<path fill="none" stroke="black" stroke-dasharray="5,2" d="M845.8,-151.31C842.72,-149.15 839.66,-147.04 836.62,-145 820.76,-134.32 803.57,-123.6 786.59,-113.48"/>
<polygon fill="black" stroke="black" points="778.24,-108.54 789.14,-109.76 781.49,-110.47 786.85,-113.63 786.85,-113.63 786.85,-113.63 781.49,-110.47 784.56,-117.5 778.24,-108.54"/>
</g>
<!-- TiffIFD&#45;&gt;VirtualEndianHandler -->
<g id="edge8" class="edge">
<title>TiffIFD&#45;&gt;VirtualEndianHandler</title>
<path fill="none" stroke="black" stroke-dasharray="5,2" d="M417.58,-149.7C420.6,-148.07 423.62,-146.5 426.62,-145 471.45,-122.55 523.25,-103.13 568.33,-88.13"/>
<polygon fill="black" stroke="black" points="577.58,-85.09 569.49,-92.49 573.99,-86.27 568.08,-88.21 568.08,-88.21 568.08,-88.21 573.99,-86.27 566.68,-83.94 577.58,-85.09"/>
</g>
<!-- TiffReadStrips&#45;&gt;VirtualEndianHandler -->
<g id="edge9" class="edge">
<title>TiffReadStrips&#45;&gt;VirtualEndianHandler</title>
<path fill="none" stroke="black" stroke-dasharray="5,2" d="M593.84,-148.02C603.88,-137.26 614.16,-126.24 623.98,-115.72"/>
<polygon fill="black" stroke="black" points="630.54,-108.68 627.01,-119.06 627.97,-111.45 623.72,-115.99 623.72,-115.99 623.72,-115.99 627.97,-111.45 620.43,-112.92 630.54,-108.68"/>
</g>
<!-- TiffReadStrips_RGB -->
<g id="node5" class="node">
<title>TiffReadStrips_RGB</title>
<polygon fill="#85c1e9" stroke="none" points="443.12,-427.5 443.12,-449.5 612.12,-449.5 612.12,-427.5 443.12,-427.5"/>
<polygon fill="none" stroke="black" points="443.12,-427.5 443.12,-449.5 612.12,-449.5 612.12,-427.5 443.12,-427.5"/>
<text xml:space="preserve" text-anchor="start" x="480.38" y="-436" font-family="Helvetica,sans-Serif" font-weight="bold" font-size="10.00">TiffReadStrips_RGB</text>
<polygon fill="none" stroke="black" points="443.12,-405.5 443.12,-427.5 612.12,-427.5 612.12,-405.5 443.12,-405.5"/>
<text xml:space="preserve" text-anchor="start" x="448.12" y="-414" font-family="Helvetica,sans-Serif" font-style="italic" font-size="10.00">(inherits all)</text>
<polygon fill="none" stroke="black" points="443.12,-371.5 443.12,-405.5 612.12,-405.5 612.12,-371.5 443.12,-371.5"/>
<text xml:space="preserve" text-anchor="start" x="448.12" y="-390.75" font-family="Helvetica,sans-Serif" font-size="10.00"> &#160;&#160;&#160;&#160;&#160;&#160;&#160;&#160;&#160;&#160;&#160;+ reformat_strip() «override»</text>
<text xml:space="preserve" text-anchor="start" x="448.12" y="-378.75" font-family="Helvetica,sans-Serif" font-size="10.00"> &#160;&#160;&#160;&#160;&#160;&#160;&#160;</text>
</g>
<!-- TiffReadStrips_RGB&#45;&gt;TiffReadStrips -->
<g id="edge1" class="edge">
<title>TiffReadStrips_RGB&#45;&gt;TiffReadStrips</title>
<path fill="none" stroke="black" d="M527.62,-371.81C527.62,-352.05 527.62,-327.03 527.62,-303.08"/>
<polygon fill="none" stroke="black" points="531.13,-303.32 527.63,-293.32 524.13,-303.32 531.13,-303.32"/>
</g>
<!-- LittleEndian_TIFF -->
<g id="node7" class="node">
<title>LittleEndian_TIFF</title>
<polygon fill="#52be80" stroke="none" points="637.25,-243 637.25,-265 828,-265 828,-243 637.25,-243"/>
<polygon fill="none" stroke="black" points="637.25,-243 637.25,-265 828,-265 828,-243 637.25,-243"/>
<text xml:space="preserve" text-anchor="start" x="691.38" y="-251.5" font-family="Helvetica,sans-Serif" font-weight="bold" font-size="10.00">LittleEndian_TIFF</text>
<polygon fill="none" stroke="black" points="637.25,-221 637.25,-243 828,-243 828,-221 637.25,-221"/>
<text xml:space="preserve" text-anchor="start" x="642.25" y="-229.5" font-family="Helvetica,sans-Serif" font-style="italic" font-size="10.00">(no fields)</text>
<polygon fill="none" stroke="black" points="637.25,-175 637.25,-221 828,-221 828,-175 637.25,-175"/>
<text xml:space="preserve" text-anchor="start" x="642.25" y="-206.25" font-family="Helvetica,sans-Serif" font-size="10.00"> &#160;&#160;&#160;&#160;&#160;&#160;&#160;&#160;&#160;&#160;&#160;+ convert(...) «override»</text>
<text xml:space="preserve" text-anchor="start" x="642.25" y="-194.25" font-family="Helvetica,sans-Serif" font-size="10.00"> &#160;&#160;&#160;&#160;&#160;&#160;&#160;&#160;&#160;&#160;&#160;+ convert_to_array(...) «override»</text>
<text xml:space="preserve" text-anchor="start" x="642.25" y="-182.25" font-family="Helvetica,sans-Serif" font-size="10.00"> &#160;&#160;&#160;&#160;&#160;&#160;&#160;</text>
</g>
<!-- LittleEndian_TIFF&#45;&gt;VirtualEndianHandler -->
<g id="edge2" class="edge">
<title>LittleEndian_TIFF&#45;&gt;VirtualEndianHandler</title>
<path fill="none" stroke="black" d="M718.69,-175.05C713.21,-157.76 706.81,-137.57 700.83,-118.73"/>
<polygon fill="none" stroke="black" points="704.19,-117.75 697.83,-109.27 697.52,-119.87 704.19,-117.75"/>
</g>
</g>
</svg>
